:SAMPLES-PER-SECOND 30
:FULLY-SPECIFIED
:DEGREES
66
root  3.89917 39.6503 1.48307 93.5361 -87.4775 -95.5918
RightUpLeg  -5.36968 -1.62742 -3.74048
RightLeg  12.8583 -2.91992 -2.24256
RightFoot  -2.86029 -0.808405 10.6084
RightToes  5.82063e-011 0 -3.6325e-017
Spine  12.2305 -1.56818 -0.713039
Spine1  -3.86803 -2.05159 2.89106
HEad  -8.55358 1.81145 1.99478
LeftShoulder1  2.742 -6.79072 -20.2034
LeftArm  28.1158 0.236571 -52.4265
LeftForeArm  -8.45102 -19.1731 -8.25189
LeftHand  -0.451136 0.216937 10.1727
RightShoulder  1.91124 3.8632 19.5458
RightArm  18.141 -11.2386 55.1381
RightForeArm  12.613 11.4597 13.6689
RightHand  -0.366836 -2.79228 -16.0656
LeftUpLeg  -4.41014 -0.0338638 13.8796
LeftLeg  15.9075 11.4732 5.17955
LeftFoot  -3.79677 0.944273 -13.9281
LeftToes  -1.1369e-010 2.7689e-011 -1.90827e-011
67
root  3.97462 39.6784 1.12695 47.718 -85.6995 -49.4858
RightUpLeg  -4.75215 -3.92257 -2.57476
RightLeg  11.7413 -3.67358 -2.25443
RightFoot  -2.3949 -0.828615 10.355
RightToes  5.82063e-011 0 -3.6325e-017
Spine  12.5472 -1.45282 0.965431
Spine1  -3.95327 -1.77163 3.07082
HEad  -9.39477 0.628565 1.34911
LeftShoulder1  2.84123 -6.94216 -20.8073
LeftArm  24.1379 -0.131771 -53.3726
LeftForeArm  -4.09701 -16.818 -10.0569
LeftHand  -0.312643 0.617483 7.57582
RightShoulder  1.86202 3.87285 18.7876
RightArm  20.8946 -10.6332 54.252
RightForeArm  11.8905 11.8217 13.6188
RightHand  -0.405012 -2.43684 -15.6536
LeftUpLeg  -8.54037 -1.41023 14.2001
LeftLeg  22.5385 17.1785 7.84426
LeftFoot  -4.00401 0.71661 -10.7399
LeftToes  -1.1369e-010 2.7689e-011 -1.90827e-011
68
root  3.98879 39.789 0.865279 34.9212 -84.2769 -36.8403
RightUpLeg  -3.36654 -5.0681 -2.33345
RightLeg  9.88215 -4.69677 -2.0738
RightFoot  -1.69356 -0.873802 10.1927
RightToes  5.82063e-011 0 -3.6325e-017
Spine  12.7054 -0.871748 1.87665
Spine1  -3.45012 -1.05742 2.85669
HEad  -10.0903 -0.745399 0.826279
LeftShoulder1  2.90477 -6.99782 -21.2993
LeftArm  21.8245 0.372528 -54.3695
LeftForeArm  -2.34938 -16.3548 -10.2526
LeftHand  -0.151822 1.12323 3.99345
RightShoulder  1.8189 3.87493 18.1458
RightArm  22.1646 -9.34342 52.774
RightForeArm  11.9919 11.076 14.1885
RightHand  -0.349683 -2.68752 -14.6729
LeftUpLeg  -11.0817 2.22998 12.4638
LeftLeg  27.772 17.0389 9.78731
LeftFoot  -5.13623 0.480161 -8.30508
LeftToes  -1.1369e-010 2.7689e-011 -1.90827e-011
69
root  3.94835 39.8843 0.708274 28.8785 -83.1368 -30.7012
RightUpLeg  -2.23483 -5.58586 -2.22879
RightLeg  7.97374 -5.67638 -1.71703
RightFoot  -1.06098 -0.910328 10.0133
RightToes  5.82063e-011 0 -3.6325e-017
Spine  12.5099 -0.178868 2.93352
Spine1  -3.24042 -0.180525 2.44227
HEad  -10.2635 -2.0431 0.174475
LeftShoulder1  2.93019 -6.94948 -21.6943
LeftArm  24.1137 2.00407 -55.0767
LeftForeArm  -5.43312 -18.5986 -8.46038
LeftHand  -0.0129177 1.55505 0.157238
RightShoulder  1.78935 3.82688 17.8838
RightArm  20.8543 -7.64553 50.6885
RightForeArm  14.3052 8.76063 15.3761
RightHand  -0.245715 -3.39679 -13.7192
LeftUpLeg  -12.6784 6.23659 10.1731
LeftLeg  30.6937 11.9451 7.87502
LeftFoot  -7.16457 0.385915 -9.54021
LeftToes  -1.1369e-010 2.7689e-011 -1.90827e-011
70
root  3.88098 39.8729 0.637518 26.0118 -81.598 -27.2983
RightUpLeg  -1.96363 -5.88062 -1.9498
RightLeg  6.99324 -7.01198 -1.39052
RightFoot  -0.838961 -0.94489 10.1936
RightToes  5.82063e-011 0 -3.6325e-017
Spine  12.0173 0.341501 4.2654
Spine1  -3.65048 0.510541 2.15547
HEad  -9.83269 -3.19123 -0.627953
LeftShoulder1  2.92356 -6.84387 -21.9298
LeftArm  26.8437 4.24302 -55.3204
LeftForeArm  -9.08505 -22.1646 -6.10703
LeftHand  0.123523 1.44783 -3.88809
RightShoulder  1.75036 3.71959 17.691
RightArm  16.082 -5.87987 48.5068
RightForeArm  19.6134 4.58684 16.6511
RightHand  -0.172404 -3.97772 -13.1701
LeftUpLeg  -14.005 9.33307 7.89098
LeftLeg  31.8229 4.87707 3.62763
LeftFoot  -8.35563 0.386668 -12.7251
LeftToes  -1.1369e-010 2.7689e-011 -1.90827e-011
